<?xml version="1.0" encoding="utf-8"?>
<!-- Generator: Adobe Illustrator 28.2.0, SVG Export Plug-In . SVG Version: 6.00 Build 0)  -->
<svg version="1.1" id="Capa_1" xmlns="http://www.w3.org/2000/svg" xmlns:xlink="http://www.w3.org/1999/xlink" x="0px" y="0px"
	 viewBox="0 0 1125 333.99" style="enable-background:new 0 0 1125 333.99;" xml:space="preserve">
<style type="text/css">
	.st0{fill-rule:evenodd;clip-rule:evenodd;fill:#378B42;}
	.st1{fill-rule:evenodd;clip-rule:evenodd;fill:#D6E4D4;}
	.st2{fill-rule:evenodd;clip-rule:evenodd;fill:#1E1A17;}
	.st3{fill-rule:evenodd;clip-rule:evenodd;fill:#D6E6D0;}
	.st4{fill:#EFD121;}
	.st5{fill:#378B42;}
	.st6{fill:#1E1A17;}
	.st7{fill-rule:evenodd;clip-rule:evenodd;fill:#FFFFFF;}
	.st8{fill-rule:evenodd;clip-rule:evenodd;fill:#F3D01C;}
	.st9{fill-rule:evenodd;clip-rule:evenodd;fill:#348B42;}
	.st10{fill-rule:evenodd;clip-rule:evenodd;fill:#1F1A17;}
	.st11{fill-rule:evenodd;clip-rule:evenodd;fill:#EFD121;}
	.st12{fill:#FFFFFF;}
	.st13{fill:#009045;}
	.st14{fill:#63B22F;}
	.st15{fill:#EF3030;}
</style>
<g>
	<path class="st13" d="M73.39,283.86c-1.31-0.68-2.31-1.66-3.02-2.92c-0.71-1.25-1.06-2.71-1.06-4.35v-7.7
		c0-1.62,0.35-3.05,1.08-4.3c0.72-1.25,1.72-2.22,3.02-2.91c1.3-0.68,2.79-1.03,4.48-1.03c1.71,0,3.21,0.34,4.51,1.03
		c1.29,0.69,2.3,1.66,3.02,2.91c0.72,1.25,1.08,2.69,1.08,4.3v7.7c0,1.64-0.36,3.1-1.08,4.35c-0.72,1.26-1.74,2.24-3.02,2.92
		c-1.3,0.69-2.8,1.03-4.51,1.03C76.18,284.89,74.69,284.55,73.39,283.86 M81.28,280.2c0.85-0.88,1.28-2.03,1.28-3.48v-7.87
		c0-1.46-0.43-2.63-1.28-3.51c-0.86-0.88-1.99-1.31-3.41-1.31c-1.39,0-2.52,0.43-3.38,1.31c-0.86,0.88-1.29,2.05-1.29,3.51v7.87
		c0,1.44,0.43,2.6,1.29,3.48c0.86,0.88,1.98,1.32,3.38,1.32C79.29,281.52,80.42,281.08,81.28,280.2"/>
	<path class="st13" d="M105.27,261.77c1.08,0.58,1.91,1.4,2.52,2.48c0.59,1.07,0.89,2.3,0.89,3.7c0,1.37-0.3,2.59-0.91,3.65
		c-0.61,1.06-1.47,1.87-2.58,2.44c-1.12,0.58-2.4,0.87-3.87,0.87h-5.4c-0.11,0-0.17,0.05-0.17,0.17v9.08c0,0.11-0.04,0.21-0.12,0.28
		c-0.07,0.08-0.18,0.12-0.28,0.12h-3.11c-0.11,0-0.21-0.04-0.28-0.12c-0.08-0.07-0.12-0.17-0.12-0.28v-22.86
		c0-0.11,0.04-0.2,0.12-0.28c0.07-0.08,0.17-0.12,0.28-0.12h9.29C102.94,260.89,104.19,261.18,105.27,261.77 M103.72,270.71
		c0.7-0.67,1.05-1.56,1.05-2.67c0-1.12-0.35-2.03-1.05-2.73c-0.7-0.69-1.62-1.05-2.77-1.05h-5.03c-0.11,0-0.17,0.06-0.17,0.18v7.12
		c0,0.11,0.06,0.17,0.17,0.17h5.03C102.1,271.73,103.02,271.39,103.72,270.71"/>
	<path class="st13" d="M129.34,264.18c-0.08,0.08-0.17,0.12-0.28,0.12h-11.51c-0.11,0-0.17,0.06-0.17,0.17v6.32
		c0,0.11,0.06,0.17,0.17,0.17h7.73c0.11,0,0.2,0.04,0.28,0.12c0.08,0.08,0.12,0.17,0.12,0.28v2.56c0,0.11-0.04,0.21-0.12,0.29
		c-0.08,0.08-0.17,0.12-0.28,0.12h-7.73c-0.11,0-0.17,0.06-0.17,0.17v6.51c0,0.11,0.06,0.17,0.17,0.17h11.51
		c0.11,0,0.2,0.04,0.28,0.12c0.08,0.08,0.12,0.17,0.12,0.28v2.57c0,0.11-0.04,0.21-0.12,0.28c-0.08,0.09-0.17,0.12-0.28,0.12h-15.19
		c-0.12,0-0.21-0.04-0.29-0.12c-0.08-0.07-0.12-0.17-0.12-0.28v-22.82c0-0.11,0.04-0.21,0.12-0.28c0.07-0.08,0.17-0.12,0.29-0.12
		h15.19c0.11,0,0.2,0.04,0.28,0.12c0.08,0.07,0.12,0.17,0.12,0.28v2.57C129.46,264.01,129.42,264.1,129.34,264.18"/>
	<path class="st13" d="M147.33,284.25l-4.45-9.72c-0.05-0.09-0.11-0.13-0.2-0.13h-4.05c-0.11,0-0.17,0.05-0.17,0.17v9.59
		c0,0.11-0.04,0.21-0.12,0.28c-0.08,0.08-0.18,0.12-0.29,0.12h-3.11c-0.11,0-0.2-0.04-0.28-0.12c-0.08-0.07-0.12-0.17-0.12-0.28
		v-22.82c0-0.11,0.04-0.21,0.12-0.29c0.08-0.07,0.17-0.12,0.28-0.12h9.29c1.37,0,2.58,0.29,3.64,0.86c1.06,0.58,1.88,1.38,2.47,2.43
		c0.58,1.05,0.88,2.25,0.88,3.59c0,1.55-0.4,2.88-1.2,3.97c-0.8,1.09-1.91,1.85-3.33,2.28c-0.04,0-0.08,0.02-0.1,0.07
		c-0.02,0.04-0.02,0.09,0,0.13l4.76,9.83c0.04,0.09,0.06,0.16,0.06,0.2c0,0.18-0.12,0.27-0.37,0.27h-3.24
		C147.58,284.55,147.43,284.45,147.33,284.25 M138.45,264.47v6.72c0,0.11,0.06,0.17,0.17,0.17h5.06c1.08,0,1.95-0.32,2.62-0.96
		c0.66-0.65,0.99-1.49,0.99-2.55c0-1.06-0.33-1.92-0.99-2.57c-0.67-0.65-1.54-0.98-2.62-0.98h-5.06
		C138.51,264.3,138.45,264.36,138.45,264.47"/>
	<path class="st13" d="M171.25,284.21l-1.12-3.6c-0.04-0.1-0.1-0.14-0.17-0.14h-8.91c-0.07,0-0.12,0.04-0.17,0.14l-1.12,3.6
		c-0.06,0.22-0.21,0.34-0.44,0.34h-3.37c-0.13,0-0.23-0.04-0.3-0.12c-0.07-0.07-0.09-0.19-0.04-0.35l7.33-22.82
		c0.07-0.22,0.21-0.33,0.43-0.33h4.22c0.22,0,0.37,0.11,0.44,0.33l7.36,22.82c0.02,0.05,0.04,0.1,0.04,0.17c0,0.2-0.13,0.3-0.37,0.3
		h-3.38C171.46,284.55,171.31,284.44,171.25,284.21 M162.06,277.4h6.85c0.14,0,0.18-0.07,0.14-0.21l-3.48-11.31
		c-0.02-0.09-0.05-0.13-0.1-0.13c-0.05,0-0.09,0.05-0.1,0.13l-3.44,11.31C161.91,277.33,161.95,277.4,162.06,277.4"/>
	<path class="st13" d="M180.33,284.43c-0.08-0.07-0.12-0.17-0.12-0.28v-22.82c0-0.11,0.04-0.21,0.12-0.29
		c0.07-0.07,0.17-0.11,0.29-0.11h8.24c1.59,0,3,0.28,4.22,0.84c1.21,0.56,2.15,1.36,2.81,2.41s0.99,2.27,0.99,3.66v9.79
		c0,1.39-0.33,2.61-0.99,3.66c-0.66,1.05-1.6,1.85-2.81,2.41c-1.22,0.56-2.63,0.84-4.22,0.84h-8.24
		C180.5,284.55,180.41,284.52,180.33,284.43 M184.3,281.18h4.73c1.19,0,2.14-0.38,2.85-1.13c0.71-0.75,1.07-1.76,1.1-3.02v-8.53
		c0-1.29-0.36-2.31-1.08-3.07c-0.73-0.75-1.69-1.13-2.91-1.13h-4.69c-0.11,0-0.17,0.06-0.17,0.17v16.54
		C184.13,281.12,184.19,281.18,184.3,281.18"/>
	<path class="st13" d="M205.9,283.86c-1.31-0.68-2.32-1.66-3.02-2.92c-0.72-1.25-1.07-2.71-1.07-4.35v-7.7
		c0-1.62,0.36-3.05,1.08-4.3c0.72-1.25,1.72-2.22,3.02-2.91c1.3-0.68,2.78-1.03,4.47-1.03c1.71,0,3.21,0.34,4.51,1.03
		c1.29,0.69,2.3,1.66,3.02,2.91c0.72,1.25,1.08,2.69,1.08,4.3v7.7c0,1.64-0.36,3.1-1.08,4.35c-0.72,1.26-1.74,2.24-3.02,2.92
		c-1.3,0.69-2.8,1.03-4.51,1.03C208.69,284.89,207.2,284.55,205.9,283.86 M213.8,280.2c0.85-0.88,1.28-2.03,1.28-3.48v-7.87
		c0-1.46-0.43-2.63-1.28-3.51c-0.86-0.88-2-1.31-3.42-1.31c-1.39,0-2.52,0.43-3.37,1.31c-0.86,0.88-1.29,2.05-1.29,3.51v7.87
		c0,1.44,0.43,2.6,1.29,3.48c0.85,0.88,1.98,1.32,3.37,1.32C211.8,281.52,212.94,281.08,213.8,280.2"/>
	<path class="st13" d="M237.25,284.25l-4.45-9.72c-0.04-0.09-0.11-0.13-0.2-0.13h-4.05c-0.11,0-0.17,0.05-0.17,0.17v9.59
		c0,0.11-0.04,0.21-0.12,0.28c-0.08,0.08-0.18,0.12-0.28,0.12h-3.11c-0.12,0-0.21-0.04-0.29-0.12c-0.08-0.07-0.12-0.17-0.12-0.28
		v-22.82c0-0.11,0.04-0.21,0.12-0.29c0.08-0.07,0.17-0.12,0.29-0.12h9.28c1.37,0,2.58,0.29,3.65,0.86c1.06,0.58,1.87,1.38,2.46,2.43
		c0.58,1.05,0.88,2.25,0.88,3.59c0,1.55-0.4,2.88-1.2,3.97c-0.8,1.09-1.9,1.85-3.32,2.28c-0.05,0-0.08,0.02-0.11,0.07
		c-0.02,0.04-0.02,0.09,0,0.13l4.76,9.83c0.05,0.09,0.06,0.16,0.06,0.2c0,0.18-0.12,0.27-0.37,0.27h-3.24
		C237.5,284.55,237.34,284.45,237.25,284.25 M228.37,264.47v6.72c0,0.11,0.06,0.17,0.17,0.17h5.06c1.09,0,1.95-0.32,2.62-0.96
		c0.66-0.65,0.99-1.49,0.99-2.55c0-1.06-0.33-1.92-0.99-2.57c-0.67-0.65-1.53-0.98-2.62-0.98h-5.06
		C228.43,264.3,228.37,264.36,228.37,264.47"/>
	<path class="st13" d="M261.17,284.21l-1.12-3.6c-0.04-0.1-0.1-0.14-0.17-0.14h-8.91c-0.07,0-0.12,0.04-0.17,0.14l-1.11,3.6
		c-0.06,0.22-0.22,0.34-0.44,0.34h-3.37c-0.13,0-0.23-0.04-0.3-0.12c-0.07-0.07-0.08-0.19-0.04-0.35l7.33-22.82
		c0.07-0.22,0.21-0.33,0.44-0.33h4.22c0.22,0,0.37,0.11,0.44,0.33l7.36,22.82c0.02,0.05,0.04,0.1,0.04,0.17c0,0.2-0.13,0.3-0.37,0.3
		h-3.38C261.38,284.55,261.23,284.44,261.17,284.21 M251.98,277.4h6.86c0.13,0,0.18-0.07,0.13-0.21l-3.48-11.31
		c-0.02-0.09-0.06-0.13-0.1-0.13c-0.05,0-0.09,0.05-0.11,0.13l-3.44,11.31C251.83,277.33,251.87,277.4,251.98,277.4"/>
	<path class="st13" d="M298.54,260.93h3.1c0.11,0,0.2,0.04,0.29,0.12c0.07,0.08,0.12,0.17,0.12,0.28v22.82
		c0,0.11-0.04,0.2-0.12,0.28c-0.09,0.08-0.18,0.12-0.29,0.12h-3.1c-0.11,0-0.21-0.04-0.29-0.12c-0.07-0.08-0.12-0.18-0.12-0.28
		v-16.11c0-0.07-0.03-0.11-0.09-0.13c-0.06-0.02-0.09,0-0.11,0.06l-4.22,6.48c-0.12,0.18-0.27,0.27-0.48,0.27h-1.55
		c-0.2,0-0.36-0.09-0.47-0.27l-4.25-6.45c-0.03-0.07-0.07-0.09-0.12-0.07c-0.06,0.02-0.09,0.07-0.09,0.13v16.07
		c0,0.11-0.04,0.2-0.12,0.28c-0.08,0.08-0.18,0.12-0.28,0.12h-3.11c-0.12,0-0.21-0.04-0.29-0.12c-0.08-0.08-0.11-0.18-0.11-0.28
		v-22.82c0-0.11,0.03-0.2,0.11-0.28c0.08-0.08,0.17-0.12,0.29-0.12h3.11c0.2,0,0.36,0.09,0.47,0.27l5.51,8.34
		c0.04,0.04,0.09,0.06,0.13,0.06c0.05,0,0.08-0.02,0.11-0.06l5.49-8.34C298.18,261.02,298.33,260.93,298.54,260.93"/>
	<path class="st13" d="M323.89,264.18c-0.08,0.08-0.17,0.12-0.28,0.12H312.1c-0.11,0-0.17,0.06-0.17,0.17v6.32
		c0,0.11,0.06,0.17,0.17,0.17h7.73c0.11,0,0.2,0.04,0.28,0.12c0.08,0.08,0.12,0.17,0.12,0.28v2.56c0,0.11-0.04,0.21-0.12,0.29
		c-0.08,0.08-0.17,0.12-0.28,0.12h-7.73c-0.11,0-0.17,0.06-0.17,0.17v6.51c0,0.11,0.06,0.17,0.17,0.17h11.51
		c0.11,0,0.2,0.04,0.28,0.12c0.08,0.08,0.12,0.17,0.12,0.28v2.57c0,0.11-0.04,0.21-0.12,0.28c-0.08,0.09-0.17,0.12-0.28,0.12h-15.19
		c-0.12,0-0.21-0.04-0.29-0.12c-0.08-0.07-0.12-0.17-0.12-0.28v-22.82c0-0.11,0.04-0.21,0.12-0.28c0.07-0.08,0.17-0.12,0.29-0.12
		h15.19c0.11,0,0.2,0.04,0.28,0.12c0.08,0.07,0.12,0.17,0.12,0.28v2.57C324.02,264.01,323.97,264.1,323.89,264.18"/>
	<path class="st13" d="M345.5,261.04c0.08,0.08,0.11,0.17,0.11,0.28v2.6c0,0.11-0.03,0.21-0.11,0.29c-0.08,0.07-0.18,0.12-0.29,0.12
		h-6.21c-0.11,0-0.17,0.05-0.17,0.17v19.65c0,0.11-0.04,0.2-0.12,0.28c-0.07,0.08-0.18,0.12-0.29,0.12h-3.1
		c-0.11,0-0.2-0.04-0.28-0.12c-0.09-0.08-0.12-0.18-0.12-0.28V264.5c0-0.11-0.05-0.17-0.17-0.17h-5.98c-0.11,0-0.2-0.04-0.28-0.12
		c-0.07-0.08-0.12-0.18-0.12-0.29v-2.6c0-0.11,0.04-0.2,0.12-0.28c0.08-0.08,0.18-0.12,0.28-0.12h16.44
		C345.32,260.93,345.42,260.96,345.5,261.04"/>
	<path class="st13" d="M363.27,284.25l-4.45-9.72c-0.04-0.09-0.11-0.13-0.2-0.13h-4.05c-0.11,0-0.17,0.05-0.17,0.17v9.59
		c0,0.11-0.04,0.21-0.12,0.28c-0.08,0.08-0.18,0.12-0.28,0.12h-3.11c-0.12,0-0.21-0.04-0.29-0.12c-0.08-0.07-0.11-0.17-0.11-0.28
		v-22.82c0-0.11,0.03-0.21,0.11-0.29c0.08-0.07,0.17-0.12,0.29-0.12h9.28c1.37,0,2.58,0.29,3.65,0.86c1.06,0.58,1.87,1.38,2.46,2.43
		c0.58,1.05,0.88,2.25,0.88,3.59c0,1.55-0.4,2.88-1.2,3.97c-0.8,1.09-1.9,1.85-3.32,2.28c-0.05,0-0.08,0.02-0.11,0.07
		c-0.02,0.04-0.02,0.09,0,0.13l4.76,9.83c0.05,0.09,0.06,0.16,0.06,0.2c0,0.18-0.12,0.27-0.37,0.27h-3.24
		C363.52,284.55,363.36,284.45,363.27,284.25 M354.39,264.47v6.72c0,0.11,0.06,0.17,0.17,0.17h5.06c1.08,0,1.95-0.32,2.62-0.96
		c0.66-0.65,0.99-1.49,0.99-2.55c0-1.06-0.33-1.92-0.99-2.57c-0.67-0.65-1.53-0.98-2.62-0.98h-5.06
		C354.45,264.3,354.39,264.36,354.39,264.47"/>
	<path class="st13" d="M376.02,283.86c-1.31-0.68-2.31-1.66-3.02-2.92c-0.71-1.25-1.06-2.71-1.06-4.35v-7.7
		c0-1.62,0.36-3.05,1.08-4.3c0.72-1.25,1.72-2.22,3.02-2.91c1.3-0.68,2.79-1.03,4.48-1.03c1.71,0,3.21,0.34,4.51,1.03
		c1.29,0.69,2.31,1.66,3.02,2.91c0.72,1.25,1.08,2.69,1.08,4.3v7.7c0,1.64-0.36,3.1-1.08,4.35c-0.72,1.26-1.73,2.24-3.02,2.92
		c-1.3,0.69-2.8,1.03-4.51,1.03C378.82,284.89,377.33,284.55,376.02,283.86 M383.92,280.2c0.85-0.88,1.28-2.03,1.28-3.48v-7.87
		c0-1.46-0.43-2.63-1.28-3.51c-0.86-0.88-1.99-1.31-3.41-1.31c-1.39,0-2.52,0.43-3.38,1.31c-0.86,0.88-1.29,2.05-1.29,3.51v7.87
		c0,1.44,0.43,2.6,1.29,3.48c0.86,0.88,1.98,1.32,3.38,1.32C381.93,281.52,383.06,281.08,383.92,280.2"/>
	<path class="st13" d="M407.91,261.77c1.08,0.58,1.91,1.4,2.52,2.48c0.59,1.07,0.89,2.3,0.89,3.7c0,1.37-0.3,2.59-0.91,3.65
		c-0.6,1.06-1.47,1.87-2.58,2.44c-1.12,0.58-2.4,0.87-3.87,0.87h-5.4c-0.11,0-0.17,0.05-0.17,0.17v9.08c0,0.11-0.04,0.21-0.12,0.28
		c-0.07,0.08-0.18,0.12-0.28,0.12h-3.11c-0.11,0-0.2-0.04-0.28-0.12c-0.08-0.07-0.12-0.17-0.12-0.28v-22.86
		c0-0.11,0.04-0.2,0.12-0.28c0.08-0.08,0.17-0.12,0.28-0.12h9.29C405.58,260.89,406.83,261.18,407.91,261.77 M406.36,270.71
		c0.69-0.67,1.04-1.56,1.04-2.67c0-1.12-0.35-2.03-1.04-2.73c-0.7-0.69-1.62-1.05-2.77-1.05h-5.03c-0.11,0-0.17,0.06-0.17,0.18v7.12
		c0,0.11,0.05,0.17,0.17,0.17h5.03C404.73,271.73,405.65,271.39,406.36,270.71"/>
	<path class="st13" d="M419.87,283.86c-1.31-0.68-2.31-1.66-3.02-2.92c-0.72-1.25-1.07-2.71-1.07-4.35v-7.7
		c0-1.62,0.36-3.05,1.08-4.3c0.73-1.25,1.73-2.22,3.02-2.91c1.3-0.68,2.79-1.03,4.48-1.03c1.71,0,3.21,0.34,4.51,1.03
		c1.29,0.69,2.31,1.66,3.02,2.91c0.72,1.25,1.08,2.69,1.08,4.3v7.7c0,1.64-0.36,3.1-1.08,4.35c-0.72,1.26-1.73,2.24-3.02,2.92
		c-1.29,0.69-2.79,1.03-4.51,1.03C422.67,284.89,421.18,284.55,419.87,283.86 M427.77,280.2c0.85-0.88,1.28-2.03,1.28-3.48v-7.87
		c0-1.46-0.43-2.63-1.28-3.51c-0.85-0.88-1.99-1.31-3.41-1.31c-1.39,0-2.52,0.43-3.38,1.31c-0.85,0.88-1.28,2.05-1.28,3.51v7.87
		c0,1.44,0.43,2.6,1.28,3.48c0.86,0.88,1.99,1.32,3.38,1.32C425.77,281.52,426.91,281.08,427.77,280.2"/>
	<path class="st13" d="M438.55,284.43c-0.08-0.08-0.12-0.18-0.12-0.28v-22.82c0-0.11,0.04-0.2,0.12-0.28
		c0.08-0.08,0.17-0.12,0.28-0.12h3.11c0.11,0,0.21,0.04,0.28,0.12c0.08,0.08,0.12,0.17,0.12,0.28V281c0,0.11,0.06,0.18,0.17,0.18
		h11.31c0.12,0,0.2,0.04,0.28,0.12c0.09,0.07,0.12,0.17,0.12,0.28v2.57c0,0.11-0.04,0.2-0.12,0.28c-0.08,0.08-0.17,0.12-0.28,0.12
		h-14.99C438.72,284.55,438.63,284.51,438.55,284.43"/>
	<path class="st13" d="M459.13,284.43c-0.08-0.08-0.12-0.18-0.12-0.28v-22.82c0-0.11,0.04-0.2,0.12-0.28
		c0.08-0.08,0.17-0.12,0.28-0.12h3.11c0.11,0,0.21,0.04,0.28,0.12c0.08,0.08,0.12,0.17,0.12,0.28v22.82c0,0.11-0.04,0.2-0.12,0.28
		c-0.07,0.08-0.17,0.12-0.28,0.12h-3.11C459.3,284.55,459.21,284.51,459.13,284.43"/>
	<path class="st13" d="M484.98,261.04c0.08,0.08,0.11,0.17,0.11,0.28v2.6c0,0.11-0.03,0.21-0.11,0.29
		c-0.09,0.07-0.18,0.12-0.29,0.12h-6.21c-0.11,0-0.17,0.05-0.17,0.17v19.65c0,0.11-0.04,0.2-0.12,0.28
		c-0.08,0.08-0.18,0.12-0.29,0.12h-3.1c-0.12,0-0.21-0.04-0.29-0.12c-0.09-0.08-0.12-0.18-0.12-0.28V264.5
		c0-0.11-0.06-0.17-0.17-0.17h-5.98c-0.11,0-0.21-0.04-0.29-0.12c-0.07-0.08-0.11-0.18-0.11-0.29v-2.6c0-0.11,0.04-0.2,0.11-0.28
		c0.08-0.08,0.18-0.12,0.29-0.12h16.44C484.8,260.93,484.89,260.96,484.98,261.04"/>
	<path class="st13" d="M502.01,284.21l-1.12-3.6c-0.05-0.1-0.1-0.14-0.17-0.14h-8.91c-0.07,0-0.12,0.04-0.17,0.14l-1.12,3.6
		c-0.06,0.22-0.21,0.34-0.44,0.34h-3.37c-0.14,0-0.23-0.04-0.3-0.12c-0.07-0.07-0.08-0.19-0.03-0.35l7.33-22.82
		c0.07-0.22,0.21-0.33,0.43-0.33h4.22c0.22,0,0.37,0.11,0.44,0.33l7.36,22.82c0.02,0.05,0.04,0.1,0.04,0.17c0,0.2-0.13,0.3-0.37,0.3
		h-3.38C502.22,284.55,502.07,284.44,502.01,284.21 M492.82,277.4h6.85c0.14,0,0.18-0.07,0.14-0.21l-3.48-11.31
		c-0.02-0.09-0.05-0.13-0.1-0.13c-0.05,0-0.09,0.05-0.1,0.13l-3.44,11.31C492.67,277.33,492.71,277.4,492.82,277.4"/>
	<path class="st13" d="M524.83,261.04c0.08-0.08,0.17-0.12,0.28-0.12h3.11c0.11,0,0.21,0.04,0.28,0.12
		c0.08,0.08,0.12,0.17,0.12,0.28v22.82c0,0.11-0.04,0.2-0.12,0.28c-0.07,0.08-0.17,0.12-0.28,0.12h-3.01
		c-0.22,0-0.38-0.09-0.47-0.27l-9.72-15.93c-0.04-0.07-0.09-0.09-0.13-0.08c-0.04,0.01-0.06,0.06-0.06,0.15l0.06,15.73
		c0,0.11-0.04,0.2-0.12,0.28c-0.07,0.08-0.17,0.12-0.28,0.12h-3.11c-0.11,0-0.21-0.04-0.28-0.12c-0.08-0.08-0.12-0.18-0.12-0.28
		v-22.82c0-0.11,0.04-0.2,0.12-0.28c0.07-0.08,0.17-0.12,0.28-0.12h3.01c0.22,0,0.38,0.09,0.47,0.27l9.69,15.93
		c0.04,0.06,0.09,0.09,0.13,0.09c0.04-0.02,0.07-0.06,0.07-0.15l-0.03-15.73C524.71,261.22,524.75,261.12,524.83,261.04"/>
	<path class="st13" d="M549.07,284.21l-1.12-3.6c-0.04-0.1-0.1-0.14-0.17-0.14h-8.91c-0.07,0-0.12,0.04-0.17,0.14l-1.12,3.6
		c-0.06,0.22-0.21,0.34-0.44,0.34h-3.37c-0.13,0-0.23-0.04-0.3-0.12c-0.07-0.07-0.09-0.19-0.04-0.35l7.33-22.82
		c0.07-0.22,0.21-0.33,0.43-0.33h4.22c0.22,0,0.37,0.11,0.44,0.33l7.36,22.82c0.02,0.05,0.04,0.1,0.04,0.17c0,0.2-0.13,0.3-0.37,0.3
		h-3.38C549.29,284.55,549.14,284.44,549.07,284.21 M539.89,277.4h6.85c0.14,0,0.18-0.07,0.14-0.21l-3.48-11.31
		c-0.02-0.09-0.05-0.13-0.1-0.13c-0.05,0-0.09,0.05-0.1,0.13l-3.44,11.31C539.73,277.33,539.77,277.4,539.89,277.4"/>
	<path class="st13" d="M570.86,284.43c-0.08-0.07-0.12-0.17-0.12-0.28v-22.82c0-0.11,0.04-0.21,0.12-0.29
		c0.07-0.07,0.17-0.11,0.29-0.11h8.23c1.59,0,3.01,0.28,4.22,0.84c1.22,0.56,2.15,1.36,2.82,2.41c0.66,1.05,0.99,2.27,0.99,3.66
		v9.79c0,1.39-0.33,2.61-0.99,3.66c-0.67,1.05-1.6,1.85-2.82,2.41c-1.21,0.56-2.63,0.84-4.22,0.84h-8.23
		C571.03,284.55,570.93,284.52,570.86,284.43 M574.83,281.18h4.72c1.19,0,2.15-0.38,2.85-1.13c0.71-0.75,1.08-1.76,1.1-3.02v-8.53
		c0-1.29-0.36-2.31-1.08-3.07c-0.72-0.75-1.69-1.13-2.91-1.13h-4.69c-0.11,0-0.17,0.06-0.17,0.17v16.54
		C574.66,281.12,574.71,281.18,574.83,281.18"/>
	<path class="st13" d="M608.74,264.18c-0.08,0.08-0.17,0.12-0.28,0.12h-11.51c-0.11,0-0.17,0.06-0.17,0.17v6.32
		c0,0.11,0.06,0.17,0.17,0.17h7.73c0.12,0,0.2,0.04,0.28,0.12c0.09,0.08,0.12,0.17,0.12,0.28v2.56c0,0.11-0.04,0.21-0.12,0.29
		c-0.08,0.08-0.17,0.12-0.28,0.12h-7.73c-0.11,0-0.17,0.06-0.17,0.17v6.51c0,0.11,0.06,0.17,0.17,0.17h11.51
		c0.11,0,0.2,0.04,0.28,0.12c0.08,0.08,0.12,0.17,0.12,0.28v2.57c0,0.11-0.04,0.21-0.12,0.28c-0.08,0.09-0.17,0.12-0.28,0.12h-15.19
		c-0.12,0-0.21-0.04-0.29-0.12c-0.08-0.07-0.12-0.17-0.12-0.28v-22.82c0-0.11,0.04-0.21,0.12-0.28c0.07-0.08,0.17-0.12,0.29-0.12
		h15.19c0.11,0,0.2,0.04,0.28,0.12c0.08,0.07,0.12,0.17,0.12,0.28v2.57C608.87,264.01,608.82,264.1,608.74,264.18"/>
	<path class="st13" d="M629.9,283.98c-1.3-0.56-2.31-1.35-3.02-2.36c-0.7-1.01-1.06-2.21-1.06-3.58v-0.85c0-0.11,0.04-0.2,0.12-0.28
		c0.07-0.07,0.17-0.12,0.28-0.12h3c0.12,0,0.21,0.04,0.29,0.12c0.07,0.08,0.12,0.17,0.12,0.28v0.65c0,1.04,0.45,1.9,1.38,2.58
		c0.92,0.69,2.18,1.04,3.78,1.04c1.38,0,2.41-0.29,3.11-0.88c0.7-0.59,1.05-1.34,1.05-2.26c0-0.63-0.19-1.16-0.58-1.6
		c-0.38-0.44-0.93-0.84-1.63-1.2c-0.72-0.36-1.77-0.81-3.19-1.35c-1.6-0.59-2.89-1.14-3.89-1.65c-0.98-0.52-1.82-1.22-2.48-2.11
		c-0.66-0.89-0.99-2-0.99-3.33c0-1.98,0.72-3.54,2.16-4.69c1.44-1.14,3.36-1.72,5.77-1.72c1.69,0,3.18,0.29,4.48,0.87
		c1.29,0.59,2.3,1.41,3.02,2.45c0.72,1.05,1.08,2.25,1.08,3.63v0.57c0,0.11-0.04,0.21-0.12,0.29c-0.08,0.07-0.17,0.12-0.28,0.12
		h-3.04c-0.12,0-0.21-0.04-0.29-0.12c-0.07-0.08-0.11-0.18-0.11-0.29v-0.37c0-1.06-0.43-1.95-1.3-2.68c-0.87-0.74-2.07-1.1-3.59-1.1
		c-1.24,0-2.2,0.26-2.89,0.77c-0.68,0.52-1.03,1.25-1.03,2.19c0,0.68,0.19,1.23,0.54,1.66c0.36,0.42,0.9,0.81,1.62,1.16
		c0.72,0.35,1.83,0.8,3.34,1.34c1.59,0.6,2.87,1.15,3.83,1.66c0.96,0.49,1.77,1.18,2.46,2.07c0.69,0.89,1.04,2,1.04,3.33
		c0,2.02-0.75,3.63-2.25,4.83c-1.5,1.19-3.54,1.78-6.13,1.78C632.73,284.82,631.2,284.54,629.9,283.98"/>
	<path class="st13" d="M663.79,264.18c-0.08,0.08-0.17,0.12-0.28,0.12H652c-0.11,0-0.17,0.06-0.17,0.17v6.32
		c0,0.11,0.06,0.17,0.17,0.17h7.73c0.11,0,0.2,0.04,0.28,0.12c0.08,0.08,0.12,0.17,0.12,0.28v2.56c0,0.11-0.04,0.21-0.12,0.29
		c-0.08,0.08-0.17,0.12-0.28,0.12H652c-0.11,0-0.17,0.06-0.17,0.17v6.51c0,0.11,0.06,0.17,0.17,0.17h11.51
		c0.11,0,0.2,0.04,0.28,0.12c0.08,0.08,0.12,0.17,0.12,0.28v2.57c0,0.11-0.04,0.21-0.12,0.28c-0.08,0.09-0.17,0.12-0.28,0.12h-15.19
		c-0.12,0-0.21-0.04-0.29-0.12c-0.08-0.07-0.12-0.17-0.12-0.28v-22.82c0-0.11,0.04-0.21,0.12-0.28c0.07-0.08,0.17-0.12,0.29-0.12
		h15.19c0.11,0,0.2,0.04,0.28,0.12c0.08,0.07,0.12,0.17,0.12,0.28v2.57C663.92,264.01,663.87,264.1,663.79,264.18"/>
	<path class="st13" d="M681.8,284.25l-4.45-9.72c-0.05-0.09-0.11-0.13-0.2-0.13h-4.05c-0.11,0-0.17,0.05-0.17,0.17v9.59
		c0,0.11-0.04,0.21-0.12,0.28c-0.08,0.08-0.18,0.12-0.29,0.12h-3.11c-0.11,0-0.2-0.04-0.28-0.12c-0.08-0.07-0.12-0.17-0.12-0.28
		v-22.82c0-0.11,0.04-0.21,0.12-0.29c0.08-0.07,0.17-0.12,0.28-0.12h9.29c1.37,0,2.58,0.29,3.64,0.86c1.06,0.58,1.88,1.38,2.47,2.43
		c0.58,1.05,0.88,2.25,0.88,3.59c0,1.55-0.4,2.88-1.2,3.97c-0.8,1.09-1.91,1.85-3.33,2.28c-0.04,0-0.08,0.02-0.1,0.07
		c-0.02,0.04-0.02,0.09,0,0.13l4.76,9.83c0.04,0.09,0.06,0.16,0.06,0.2c0,0.18-0.12,0.27-0.37,0.27h-3.24
		C682.05,284.55,681.9,284.45,681.8,284.25 M672.93,264.47v6.72c0,0.11,0.06,0.17,0.17,0.17h5.06c1.08,0,1.95-0.32,2.62-0.96
		c0.66-0.65,0.99-1.49,0.99-2.55c0-1.06-0.33-1.92-0.99-2.57c-0.67-0.65-1.54-0.98-2.62-0.98h-5.06
		C672.98,264.3,672.93,264.36,672.93,264.47"/>
	<path class="st13" d="M696.48,284.21l-7.09-22.81l-0.03-0.14c0-0.22,0.12-0.34,0.37-0.34h3.34c0.25,0,0.42,0.11,0.48,0.34
		l5.06,17.62c0.02,0.07,0.06,0.11,0.11,0.11c0.05,0,0.08-0.04,0.1-0.11l5.03-17.62c0.06-0.22,0.22-0.34,0.47-0.34h3.27
		c0.13,0,0.24,0.04,0.31,0.13c0.06,0.09,0.07,0.2,0.03,0.34l-7.19,22.81c-0.07,0.22-0.21,0.34-0.44,0.34h-3.38
		C696.69,284.55,696.55,284.44,696.48,284.21"/>
	<path class="st13" d="M712.84,284.43c-0.08-0.08-0.12-0.18-0.12-0.28v-22.82c0-0.11,0.04-0.2,0.12-0.28
		c0.08-0.08,0.17-0.12,0.28-0.12h3.11c0.11,0,0.21,0.04,0.28,0.12c0.08,0.08,0.12,0.17,0.12,0.28v22.82c0,0.11-0.04,0.2-0.12,0.28
		c-0.07,0.08-0.17,0.12-0.28,0.12h-3.11C713.01,284.55,712.92,284.51,712.84,284.43"/>
	<path class="st13" d="M726.17,283.83c-1.28-0.66-2.28-1.59-2.97-2.78c-0.69-1.2-1.04-2.58-1.04-4.15v-8.34
		c0-1.58,0.35-2.96,1.04-4.15c0.7-1.2,1.69-2.12,2.97-2.77c1.28-0.65,2.77-0.98,4.46-0.98c1.66,0,3.13,0.32,4.42,0.95
		c1.28,0.63,2.27,1.52,2.97,2.66c0.69,1.15,1.04,2.47,1.04,3.98c0,0.11-0.04,0.21-0.11,0.29c-0.08,0.08-0.18,0.12-0.29,0.12
		l-3.11,0.17c-0.27,0-0.4-0.12-0.4-0.37c0-1.33-0.42-2.4-1.23-3.2c-0.82-0.81-1.92-1.22-3.29-1.22c-1.38,0-2.48,0.41-3.31,1.22
		c-0.83,0.81-1.25,1.87-1.25,3.2v8.61c0,1.31,0.42,2.36,1.25,3.17c0.83,0.81,1.93,1.22,3.31,1.22c1.37,0,2.47-0.41,3.29-1.2
		c0.82-0.8,1.23-1.86,1.23-3.19c0-0.25,0.13-0.37,0.4-0.37l3.11,0.14c0.11,0,0.21,0.03,0.29,0.1c0.08,0.07,0.11,0.15,0.11,0.23
		c0,1.53-0.35,2.88-1.04,4.04c-0.7,1.16-1.69,2.06-2.97,2.69c-1.28,0.63-2.76,0.95-4.42,0.95
		C728.95,284.82,727.46,284.49,726.17,283.83"/>
	<path class="st13" d="M744.38,284.43c-0.08-0.08-0.12-0.18-0.12-0.28v-22.82c0-0.11,0.04-0.2,0.12-0.28
		c0.08-0.08,0.17-0.12,0.29-0.12h3.11c0.11,0,0.2,0.04,0.28,0.12c0.08,0.08,0.12,0.17,0.12,0.28v22.82c0,0.11-0.04,0.2-0.12,0.28
		c-0.07,0.08-0.17,0.12-0.28,0.12h-3.11C744.55,284.55,744.45,284.51,744.38,284.43"/>
	<path class="st13" d="M757.74,283.86c-1.31-0.68-2.31-1.66-3.02-2.92c-0.72-1.25-1.07-2.71-1.07-4.35v-7.7
		c0-1.62,0.36-3.05,1.08-4.3c0.73-1.25,1.73-2.22,3.02-2.91c1.3-0.68,2.79-1.03,4.48-1.03c1.71,0,3.21,0.34,4.51,1.03
		c1.29,0.69,2.31,1.66,3.02,2.91c0.72,1.25,1.08,2.69,1.08,4.3v7.7c0,1.64-0.36,3.1-1.08,4.35c-0.72,1.26-1.73,2.24-3.02,2.92
		c-1.29,0.69-2.79,1.03-4.51,1.03C760.54,284.89,759.05,284.55,757.74,283.86 M765.64,280.2c0.85-0.88,1.28-2.03,1.28-3.48v-7.87
		c0-1.46-0.43-2.63-1.28-3.51c-0.85-0.88-1.99-1.31-3.41-1.31c-1.39,0-2.52,0.43-3.38,1.31c-0.85,0.88-1.28,2.05-1.28,3.51v7.87
		c0,1.44,0.43,2.6,1.28,3.48c0.86,0.88,1.99,1.32,3.38,1.32C763.65,281.52,764.79,281.08,765.64,280.2"/>
	<path class="st13" d="M779.62,283.98c-1.3-0.56-2.31-1.35-3.02-2.36c-0.71-1.01-1.06-2.21-1.06-3.58v-0.85
		c0-0.11,0.04-0.2,0.12-0.28c0.08-0.07,0.17-0.12,0.29-0.12h3c0.12,0,0.21,0.04,0.29,0.12c0.07,0.08,0.11,0.17,0.11,0.28v0.65
		c0,1.04,0.46,1.9,1.38,2.58c0.92,0.69,2.18,1.04,3.78,1.04c1.37,0,2.41-0.29,3.11-0.88c0.69-0.59,1.04-1.34,1.04-2.26
		c0-0.63-0.19-1.16-0.57-1.6c-0.38-0.44-0.93-0.84-1.64-1.2c-0.71-0.36-1.77-0.81-3.18-1.35c-1.6-0.59-2.89-1.14-3.89-1.65
		c-0.98-0.52-1.82-1.22-2.48-2.11c-0.66-0.89-0.99-2-0.99-3.33c0-1.98,0.72-3.54,2.16-4.69c1.45-1.14,3.36-1.72,5.78-1.72
		c1.69,0,3.18,0.29,4.47,0.87c1.29,0.59,2.3,1.41,3.02,2.45c0.73,1.05,1.09,2.25,1.09,3.63v0.57c0,0.11-0.04,0.21-0.12,0.29
		c-0.08,0.07-0.17,0.12-0.29,0.12h-3.03c-0.12,0-0.21-0.04-0.29-0.12c-0.07-0.08-0.12-0.18-0.12-0.29v-0.37
		c0-1.06-0.43-1.95-1.29-2.68c-0.87-0.74-2.07-1.1-3.59-1.1c-1.25,0-2.2,0.26-2.89,0.77c-0.69,0.52-1.04,1.25-1.04,2.19
		c0,0.68,0.19,1.23,0.54,1.66c0.36,0.42,0.9,0.81,1.62,1.16c0.72,0.35,1.83,0.8,3.34,1.34c1.59,0.6,2.87,1.15,3.82,1.66
		c0.96,0.49,1.78,1.18,2.47,2.07c0.69,0.89,1.03,2,1.03,3.33c0,2.02-0.75,3.63-2.25,4.83c-1.5,1.19-3.54,1.78-6.13,1.78
		C782.45,284.82,780.92,284.54,779.62,283.98"/>
	<path class="st13" d="M810.65,284.43c-0.08-0.07-0.12-0.17-0.12-0.28v-22.82c0-0.11,0.04-0.21,0.12-0.29
		c0.07-0.07,0.17-0.11,0.29-0.11h8.23c1.59,0,3.01,0.28,4.22,0.84c1.22,0.56,2.16,1.36,2.82,2.41c0.66,1.05,0.99,2.27,0.99,3.66
		v9.79c0,1.39-0.33,2.61-0.99,3.66c-0.66,1.05-1.6,1.85-2.82,2.41c-1.21,0.56-2.63,0.84-4.22,0.84h-8.23
		C810.82,284.55,810.73,284.52,810.65,284.43 M814.62,281.18h4.72c1.19,0,2.15-0.38,2.85-1.13c0.71-0.75,1.08-1.76,1.1-3.02v-8.53
		c0-1.29-0.36-2.31-1.08-3.07c-0.72-0.75-1.69-1.13-2.91-1.13h-4.69c-0.11,0-0.17,0.06-0.17,0.17v16.54
		C814.45,281.12,814.51,281.18,814.62,281.18"/>
	<path class="st13" d="M848.54,264.18c-0.08,0.08-0.17,0.12-0.28,0.12h-11.51c-0.11,0-0.17,0.06-0.17,0.17v6.32
		c0,0.11,0.06,0.17,0.17,0.17h7.73c0.12,0,0.2,0.04,0.29,0.12c0.08,0.08,0.12,0.17,0.12,0.28v2.56c0,0.11-0.04,0.21-0.12,0.29
		c-0.09,0.08-0.17,0.12-0.29,0.12h-7.73c-0.11,0-0.17,0.06-0.17,0.17v6.51c0,0.11,0.06,0.17,0.17,0.17h11.51
		c0.12,0,0.2,0.04,0.28,0.12c0.09,0.08,0.12,0.17,0.12,0.28v2.57c0,0.11-0.04,0.21-0.12,0.28c-0.08,0.09-0.17,0.12-0.28,0.12h-15.19
		c-0.12,0-0.21-0.04-0.29-0.12c-0.08-0.07-0.12-0.17-0.12-0.28v-22.82c0-0.11,0.04-0.21,0.12-0.28c0.08-0.08,0.17-0.12,0.29-0.12
		h15.19c0.12,0,0.2,0.04,0.28,0.12c0.09,0.07,0.12,0.17,0.12,0.28v2.57C848.66,264.01,848.62,264.1,848.54,264.18"/>
	<path class="st13" d="M880.86,284.21l-1.11-3.6c-0.05-0.1-0.1-0.14-0.17-0.14h-8.91c-0.07,0-0.13,0.04-0.17,0.14l-1.12,3.6
		c-0.06,0.22-0.21,0.34-0.44,0.34h-3.38c-0.13,0-0.23-0.04-0.3-0.12c-0.07-0.07-0.08-0.19-0.03-0.35l7.32-22.82
		c0.07-0.22,0.21-0.33,0.44-0.33h4.22c0.22,0,0.36,0.11,0.43,0.33l7.36,22.82c0.02,0.05,0.03,0.1,0.03,0.17c0,0.2-0.13,0.3-0.37,0.3
		h-3.38C881.08,284.55,880.93,284.44,880.86,284.21 M871.68,277.4h6.85c0.13,0,0.18-0.07,0.13-0.21l-3.48-11.31
		c-0.02-0.09-0.05-0.13-0.1-0.13c-0.05,0-0.09,0.05-0.11,0.13l-3.44,11.31C871.53,277.33,871.57,277.4,871.68,277.4"/>
	<path class="st13" d="M893.03,283.84c-1.28-0.65-2.28-1.58-2.99-2.79c-0.7-1.2-1.06-2.59-1.06-4.17v-15.56
		c0-0.11,0.04-0.21,0.12-0.29c0.07-0.07,0.17-0.12,0.28-0.12h3.11c0.11,0,0.21,0.04,0.28,0.12c0.08,0.08,0.12,0.18,0.12,0.29v15.62
		c0,1.33,0.42,2.41,1.24,3.24c0.83,0.84,1.94,1.25,3.31,1.25c1.37,0,2.47-0.42,3.31-1.25c0.83-0.83,1.25-1.91,1.25-3.24v-15.62
		c0-0.11,0.04-0.21,0.12-0.29c0.08-0.07,0.18-0.12,0.29-0.12h3.1c0.11,0,0.21,0.04,0.29,0.12c0.08,0.08,0.12,0.18,0.12,0.29v15.56
		c0,1.58-0.35,2.97-1.05,4.17c-0.7,1.21-1.69,2.14-2.97,2.79c-1.28,0.66-2.77,0.98-4.45,0.98
		C895.78,284.82,894.31,284.5,893.03,283.84"/>
	<path class="st13" d="M927.8,261.04c0.08,0.08,0.12,0.17,0.12,0.28v2.6c0,0.11-0.04,0.21-0.12,0.29c-0.08,0.07-0.18,0.12-0.29,0.12
		h-6.21c-0.11,0-0.17,0.05-0.17,0.17v19.65c0,0.11-0.04,0.2-0.12,0.28c-0.07,0.08-0.18,0.12-0.29,0.12h-3.1
		c-0.11,0-0.2-0.04-0.28-0.12c-0.09-0.08-0.12-0.18-0.12-0.28V264.5c0-0.11-0.05-0.17-0.17-0.17h-5.98c-0.11,0-0.2-0.04-0.28-0.12
		c-0.07-0.08-0.12-0.18-0.12-0.29v-2.6c0-0.11,0.04-0.2,0.12-0.28c0.08-0.08,0.18-0.12,0.28-0.12h16.44
		C927.62,260.93,927.72,260.96,927.8,261.04"/>
	<path class="st13" d="M936.07,283.86c-1.31-0.68-2.31-1.66-3.02-2.92c-0.71-1.25-1.06-2.71-1.06-4.35v-7.7
		c0-1.62,0.36-3.05,1.08-4.3c0.72-1.25,1.72-2.22,3.02-2.91c1.3-0.68,2.79-1.03,4.48-1.03c1.71,0,3.21,0.34,4.51,1.03
		c1.29,0.69,2.31,1.66,3.02,2.91c0.72,1.25,1.08,2.69,1.08,4.3v7.7c0,1.64-0.36,3.1-1.08,4.35c-0.72,1.26-1.73,2.24-3.02,2.92
		c-1.29,0.69-2.8,1.03-4.51,1.03C938.87,284.89,937.38,284.55,936.07,283.86 M943.97,280.2c0.85-0.88,1.28-2.03,1.28-3.48v-7.87
		c0-1.46-0.43-2.63-1.28-3.51c-0.86-0.88-1.99-1.31-3.41-1.31c-1.39,0-2.52,0.43-3.38,1.31c-0.86,0.88-1.29,2.05-1.29,3.51v7.87
		c0,1.44,0.43,2.6,1.29,3.48c0.86,0.88,1.98,1.32,3.38,1.32C941.98,281.52,943.11,281.08,943.97,280.2"/>
	<path class="st13" d="M967.83,272.43c2.29,1.08,3.44,2.94,3.44,5.57c0,2.14-0.72,3.76-2.15,4.88c-1.43,1.12-3.29,1.67-5.58,1.67
		h-8.51c-0.11,0-0.2-0.04-0.28-0.12c-0.08-0.07-0.12-0.17-0.12-0.28v-22.82c0-0.11,0.04-0.21,0.12-0.28
		c0.08-0.08,0.17-0.12,0.28-0.12h8.24c2.45,0,4.34,0.52,5.67,1.58c1.33,1.06,1.99,2.66,1.99,4.8c0,2.36-1.03,4.01-3.1,4.93
		C967.7,272.3,967.7,272.37,967.83,272.43 M958.55,264.46v6.25c0,0.11,0.06,0.17,0.17,0.17h4.56c1.19,0,2.13-0.29,2.81-0.87
		c0.69-0.57,1.03-1.36,1.03-2.38c0-1.04-0.34-1.85-1.03-2.45c-0.68-0.59-1.62-0.89-2.81-0.89h-4.56
		C958.61,264.3,958.55,264.36,958.55,264.46 M966.33,280.2c0.68-0.63,1.03-1.48,1.03-2.56c0-1.11-0.35-1.97-1.04-2.58
		c-0.7-0.62-1.65-0.93-2.84-0.93h-4.76c-0.11,0-0.17,0.05-0.17,0.17v6.69c0,0.11,0.06,0.17,0.17,0.17h4.83
		C964.72,281.15,965.65,280.83,966.33,280.2"/>
	<path class="st13" d="M980.5,283.84c-1.29-0.65-2.28-1.58-3-2.79c-0.7-1.2-1.06-2.59-1.06-4.17v-15.56c0-0.11,0.04-0.21,0.12-0.29
		c0.07-0.07,0.17-0.12,0.28-0.12h3.11c0.11,0,0.21,0.04,0.29,0.12c0.08,0.08,0.12,0.18,0.12,0.29v15.62c0,1.33,0.42,2.41,1.25,3.24
		c0.83,0.84,1.93,1.25,3.31,1.25c1.38,0,2.48-0.42,3.31-1.25c0.83-0.83,1.25-1.91,1.25-3.24v-15.62c0-0.11,0.03-0.21,0.11-0.29
		c0.08-0.07,0.18-0.12,0.29-0.12h3.1c0.11,0,0.21,0.04,0.29,0.12c0.08,0.08,0.12,0.18,0.12,0.29v15.56c0,1.58-0.35,2.97-1.04,4.17
		c-0.7,1.21-1.69,2.14-2.97,2.79c-1.29,0.66-2.77,0.98-4.46,0.98C983.26,284.82,981.78,284.5,980.5,283.84"/>
	<path class="st13" d="M1002.37,283.98c-1.3-0.56-2.31-1.35-3.02-2.36c-0.7-1.01-1.06-2.21-1.06-3.58v-0.85
		c0-0.11,0.04-0.2,0.12-0.28c0.07-0.07,0.17-0.12,0.29-0.12h3c0.12,0,0.21,0.04,0.29,0.12c0.07,0.08,0.11,0.17,0.11,0.28v0.65
		c0,1.04,0.46,1.9,1.38,2.58c0.92,0.69,2.18,1.04,3.78,1.04c1.37,0,2.41-0.29,3.11-0.88c0.69-0.59,1.04-1.34,1.04-2.26
		c0-0.63-0.19-1.16-0.57-1.6c-0.38-0.44-0.93-0.84-1.63-1.2c-0.72-0.36-1.77-0.81-3.19-1.35c-1.6-0.59-2.89-1.14-3.89-1.65
		c-0.98-0.52-1.82-1.22-2.48-2.11c-0.66-0.89-0.99-2-0.99-3.33c0-1.98,0.72-3.54,2.16-4.69c1.44-1.14,3.36-1.72,5.77-1.72
		c1.69,0,3.18,0.29,4.47,0.87c1.29,0.59,2.3,1.41,3.02,2.45c0.73,1.05,1.09,2.25,1.09,3.63v0.57c0,0.11-0.04,0.21-0.12,0.29
		c-0.08,0.07-0.17,0.12-0.29,0.12h-3.03c-0.12,0-0.21-0.04-0.29-0.12c-0.07-0.08-0.12-0.18-0.12-0.29v-0.37
		c0-1.06-0.43-1.95-1.29-2.68c-0.87-0.74-2.07-1.1-3.59-1.1c-1.24,0-2.2,0.26-2.89,0.77c-0.69,0.52-1.04,1.25-1.04,2.19
		c0,0.68,0.19,1.23,0.54,1.66c0.36,0.42,0.9,0.81,1.62,1.16c0.72,0.35,1.83,0.8,3.34,1.34c1.59,0.6,2.87,1.15,3.82,1.66
		c0.96,0.49,1.78,1.18,2.47,2.07c0.69,0.89,1.04,2,1.04,3.33c0,2.02-0.75,3.63-2.25,4.83c-1.5,1.19-3.53,1.78-6.13,1.78
		C1005.21,284.82,1003.68,284.54,1002.37,283.98"/>
	<path class="st13" d="M1036.27,264.18c-0.08,0.08-0.17,0.12-0.29,0.12h-11.5c-0.11,0-0.17,0.06-0.17,0.17v6.32
		c0,0.11,0.06,0.17,0.17,0.17h7.73c0.11,0,0.2,0.04,0.28,0.12c0.08,0.08,0.12,0.17,0.12,0.28v2.56c0,0.11-0.04,0.21-0.12,0.29
		c-0.08,0.08-0.17,0.12-0.28,0.12h-7.73c-0.11,0-0.17,0.06-0.17,0.17v6.51c0,0.11,0.06,0.17,0.17,0.17h11.5
		c0.12,0,0.21,0.04,0.29,0.12c0.08,0.08,0.12,0.17,0.12,0.28v2.57c0,0.11-0.04,0.21-0.12,0.28c-0.08,0.09-0.17,0.12-0.29,0.12
		h-15.18c-0.12,0-0.21-0.04-0.29-0.12c-0.08-0.07-0.12-0.17-0.12-0.28v-22.82c0-0.11,0.04-0.21,0.12-0.28
		c0.07-0.08,0.17-0.12,0.29-0.12h15.18c0.12,0,0.21,0.04,0.29,0.12c0.08,0.07,0.12,0.17,0.12,0.28v2.57
		C1036.39,264.01,1036.35,264.1,1036.27,264.18"/>
	<path class="st13" d="M1044.71,283.98c-1.31-0.56-2.32-1.35-3.02-2.36c-0.71-1.01-1.07-2.21-1.07-3.58v-0.85
		c0-0.11,0.04-0.2,0.12-0.28c0.07-0.07,0.17-0.12,0.28-0.12h3.01c0.11,0,0.2,0.04,0.29,0.12c0.07,0.08,0.12,0.17,0.12,0.28v0.65
		c0,1.04,0.45,1.9,1.38,2.58c0.92,0.69,2.18,1.04,3.78,1.04c1.38,0,2.41-0.29,3.11-0.88c0.7-0.59,1.05-1.34,1.05-2.26
		c0-0.63-0.19-1.16-0.57-1.6c-0.38-0.44-0.93-0.84-1.64-1.2c-0.71-0.36-1.77-0.81-3.19-1.35c-1.6-0.59-2.89-1.14-3.89-1.65
		c-0.98-0.52-1.82-1.22-2.48-2.11c-0.66-0.89-0.99-2-0.99-3.33c0-1.98,0.72-3.54,2.16-4.69c1.45-1.14,3.36-1.72,5.77-1.72
		c1.69,0,3.18,0.29,4.48,0.87c1.29,0.59,2.3,1.41,3.02,2.45c0.72,1.05,1.08,2.25,1.08,3.63v0.57c0,0.11-0.04,0.21-0.12,0.29
		c-0.08,0.07-0.17,0.12-0.28,0.12h-3.04c-0.11,0-0.21-0.04-0.29-0.12c-0.07-0.08-0.12-0.18-0.12-0.29v-0.37
		c0-1.06-0.43-1.95-1.3-2.68c-0.86-0.74-2.07-1.1-3.59-1.1c-1.24,0-2.2,0.26-2.88,0.77c-0.69,0.52-1.04,1.25-1.04,2.19
		c0,0.68,0.19,1.23,0.54,1.66c0.35,0.42,0.9,0.81,1.62,1.16c0.72,0.35,1.83,0.8,3.34,1.34c1.6,0.6,2.87,1.15,3.83,1.66
		c0.96,0.49,1.78,1.18,2.46,2.07c0.69,0.89,1.04,2,1.04,3.33c0,2.02-0.75,3.63-2.25,4.83c-1.5,1.19-3.54,1.78-6.13,1.78
		C1047.54,284.82,1046.01,284.54,1044.71,283.98"/>
	<path class="st13" d="M751.5,188.35c-0.23,0-0.46-0.02-0.69-0.04H632.06c-13.39,0.02-24.24,10.88-24.24,24.28
		c0,13.41,10.87,24.28,24.28,24.28h119.18c29.66,0,54.56-20.78,60.9-48.55H752.2C751.97,188.33,751.74,188.35,751.5,188.35"/>
	<path class="st13" d="M813.86,67.17c0-13.41-10.87-24.28-24.28-24.28H670.4c-29.66,0-54.56,20.78-60.9,48.55h180.11
		C803,91.43,813.86,80.57,813.86,67.17"/>
	<path class="st14" d="M803.73,141.2c-0.1-0.13-0.19-0.26-0.29-0.4c-6.87-9.1-17.68-15.53-28.49-18.85
		c-5.85-1.79-11.96-2.69-18.08-2.69h-86.11c-7.08,0-13.38-5.07-14.28-12.08c-0.42-3.25,0.3-6.32,1.82-8.88h-50.07
		c-0.33,2.93-0.48,5.92-0.38,8.95c0.33,10.85,3.5,20.94,8.75,29.66c0.01,0.01,1.14,1.74,1.94,2.71
		c11.36,12.77,27.88,20.87,46.27,20.87h86.11c2.01,0,3.95,0.42,5.73,1.17c0.14,0.06,0.29,0.12,0.44,0.18
		c0.09,0.04,0.18,0.09,0.26,0.13c2.52,1.17,4.61,3.07,6.02,5.43c0.09,0.13,0.17,0.26,0.25,0.4c0.1,0.19,0.19,0.37,0.28,0.57
		c0.11,0.2,0.21,0.41,0.3,0.62c0.09,0.2,0.16,0.4,0.24,0.61c0.07,0.19,0.14,0.38,0.21,0.58c0.1,0.3,0.18,0.61,0.26,0.92
		c0.02,0.08,0.05,0.16,0.06,0.25c0.24,1.01,0.38,2.07,0.38,3.16c0,2.54-0.69,4.91-1.88,6.95h49.98c0.34-2.93,0.48-5.91,0.39-8.95
		C813.5,161.52,810.36,150.2,803.73,141.2"/>
	<path class="st14" d="M172.04,187h-40.76c-7.78,0-14.09-6.31-14.09-14.09V106.6c0-7.78,6.31-14.09,14.09-14.09h40.76V42.64h-44.31
		c-33.36,0-60.4,27.05-60.4,60.41v73.42c0,33.36,27.04,60.41,60.4,60.41h44.31V187z"/>
	<path class="st13" d="M223.4,42.64h-44.3v49.87h40.76c7.78,0,14.09,6.31,14.09,14.09v66.31c0,7.78-6.31,14.09-14.09,14.09h-40.76
		v49.87h44.3c33.36,0,60.41-27.05,60.41-60.41v-73.42C283.81,69.68,256.76,42.64,223.4,42.64"/>
	<path class="st13" d="M1007.8,43.47v91.96h-0.01v17.16H898.11v44.3h109.69v15.05c0,13.77,11.17,24.93,24.94,24.93
		c13.77,0,24.93-11.16,24.93-24.93V102.94C1057.67,73.18,1036.14,48.46,1007.8,43.47"/>
	<path class="st14" d="M1000.76,42.53H901.8c-33.36,0-60.41,27.04-60.41,60.41v108.39c0,13.52,10.51,25.03,24.02,25.52
		c14.18,0.51,25.84-10.84,25.85-24.9v-89.07V106.4c0-7.73,6.27-13.99,13.99-13.99h95.52V42.53z"/>
	<path class="st14" d="M311.49,102.2v111.4c0,12.81,10.38,23.19,23.19,23.19c12.81,0,23.19-10.38,23.19-23.19V102.2
		c0-0.05,0.01-0.1,0.01-0.14V44.03C331.32,50.07,311.49,73.81,311.49,102.2"/>
	<path class="st13" d="M519.34,42.53c-32.95,0-59.67,26.71-59.67,59.67v49.13v0.03c0,0.09,0.02,0.17,0.02,0.26
		c0,7.16-5.43,13.04-12.39,13.76h-2.98c-6.96-0.72-12.38-6.61-12.38-13.76c0-0.09,0.01-0.17,0.01-0.26v-0.03V102.2
		c0-32.96-26.72-59.67-59.67-59.67h-0.92c-2.17,0-4.31,0.12-6.42,0.35v47.5c2.01-1.13,4.33-1.78,6.79-1.78
		c3.83,0,7.31,1.55,9.81,4.07c2.49,2.41,4.04,5.79,4.04,9.53v49.57c0,32.44,26.22,58.84,58.58,59.18v0.01h0.12h0.06h2.98
		c32.44-0.25,58.76-26.7,58.76-59.19V102.2c0-3.74,1.55-7.12,4.04-9.53c2.5-2.52,5.97-4.07,9.8-4.07c2.47,0,4.78,0.65,6.79,1.78
		v-47.5c-2.11-0.22-4.25-0.35-6.42-0.35H519.34z"/>
	<path class="st14" d="M533.74,44.03v58.03c0,0.05,0.01,0.1,0.01,0.14v111.4c0,12.81,10.38,23.19,23.19,23.19
		c12.81,0,23.19-10.39,23.19-23.19V102.2C580.13,73.82,560.3,50.07,533.74,44.03"/>
</g>
</svg>
